<?xml version="1.0" encoding="utf-8"?>
<!-- Generator: Adobe Illustrator 20.0.0, SVG Export Plug-In . SVG Version: 6.00 Build 0)  -->
<svg version="1.1" id="Layer_1" xmlns="http://www.w3.org/2000/svg" xmlns:xlink="http://www.w3.org/1999/xlink" x="0px" y="0px"
	 viewBox="0 0 22 22" style="enable-background:new 0 0 22 22;" xml:space="preserve">
<style type="text/css">
	.st0{fill:#E6E7E8;}
	.st1{fill:#EBC76D;}
</style>
<title>Oval</title>
<g>
	<polygon class="st0" points="-16.1,5.4 -16.1,-1.3 -7.6,-1.3 -7.6,-5.8 -16.1,-5.8 -16.1,-10.5 -5.5,-10.5 -5.5,-14.5 -20.5,-14.5 
		-20.5,9.4 -4.8,9.4 -4.8,5.4 	"/>
	<path class="st0" d="M29.7-14.8c-6.7,0-12.2,5.5-12.2,12.2c0,6.7,5.5,12.2,12.2,12.2c6.7,0,12.2-5.5,12.2-12.2
		C41.9-9.4,36.5-14.8,29.7-14.8z M37.5-2.6c0,4.3-3.5,7.8-7.8,7.8c-4.3,0-7.8-3.5-7.8-7.8c0-4.3,3.5-7.8,7.8-7.8c0,0,0,0,0,0
		C34-10.4,37.5-6.9,37.5-2.6z"/>
	<path class="st1" d="M-16.7,5.1c-0.6,0.8-0.8,1.8-0.7,3c0.1,1.2,0.4,2.4,0.7,3.6c1.2-0.9,2.4-1.8,3.6-2.6c1.1-0.8,2.1-1.8,2.9-2.9
		c0.1-0.1,0.3-0.3,0.3-0.5c0.1-0.2,0.2-0.3,0.4-0.3c0.2,0,0.4,0.1,0.5,0.3C-9,6.1-9.1,6.5-9.6,7c-0.5,0.7-1.1,1.3-1.8,1.8
		c-0.8,0.7-1.6,1.4-2.5,2.1c-0.9,0.8-1.7,1.5-2.5,2.2c0.3,1,0.6,2,0.8,2.9c0.2,0.8,0.3,1.6,0.3,2.4c0,0.7-0.2,1.3-0.6,1.7
		c-0.4,0.4-1.1,0.6-2.1,0.6c-0.8,0-1.6-0.2-2.6-0.6c-1-0.4-1.6-0.8-1.8-1.3c-0.1-0.2-0.1-0.6,0-0.9c0.2-0.4,0.4-0.8,0.6-1.2
		c0.3-0.4,0.6-0.8,0.9-1.2c0.3-0.4,0.6-0.7,0.9-1c0.7-0.7,1.4-1.3,2.1-1.9c-0.3-1.1-0.6-2.2-1-3.4s-0.7-2.2-1-3.2
		C-20,5.1-20.1,4.3-20,3.7c0.1-0.6,0.5-0.9,1.1-0.9c0.5,0,0.9,0.2,1.2,0.5c0.3,0.3,0.6,0.6,0.8,0.9C-16.6,4.5-16.6,4.9-16.7,5.1z
		 M-17.8,16.8c0.2-0.4,0.3-0.7,0.3-1.1c0-0.5,0-0.9,0-1.4L-18,15c-0.4,0.5-0.7,1-1.1,1.5c-0.3,0.5-0.6,1-0.9,1.6
		c0.4,0,0.8-0.1,1.2-0.3C-18.3,17.6-18,17.3-17.8,16.8z"/>
	<path class="st1" d="M8.1,18c0.1-0.1,0.2-0.3,0.3-0.4c0.1-0.5,0.2-1,0.4-1.4c0.2-0.5,0.3-1,0.4-1.4c0.2-0.9,0.4-1.8,0.6-2.7
		c0.2-0.9,0.3-1.8,0.4-2.7c-1.3,1.4-2.5,3-3.4,4.7c-0.9,1.5-1.6,3.1-2.2,4.8c-0.1,0.3-0.2,0.7-0.4,1c-0.2,0.4-0.4,0.5-0.9,0.5
		c-0.5,0-1-0.2-1.4-0.5c-0.4-0.3-0.8-0.7-1.1-1.1c-0.2-0.4-0.2-0.8-0.1-1.2c0.1-0.5,0.2-1,0.4-1.4c0.2-0.5,0.4-0.9,0.6-1.4
		c0.2-0.3,0.4-0.7,0.5-1.1C3.2,11.3,3.8,8.7,4.1,6c0-0.3,0.1-0.7,0-1.1c0-0.3,0.2-0.5,0.8-0.5c0.4,0,0.8,0.1,1.1,0.4
		C6.4,5,6.7,5.3,6.9,5.7c0.3,0.5,0.3,0.9,0,1.1L7,6.6C6.4,7.7,6,8.9,5.6,10.1c-0.4,1.2-0.7,2.5-0.9,3.8c1.3-1.5,2.5-3.1,3.5-4.8
		c0.8-1.4,1.6-2.9,2.2-4.4l0.1-0.2l0,0.1l0.1-0.2c0.1-0.1,0.1-0.3,0.2-0.4c0.1-0.1,0.3-0.2,0.6-0.2c0.4,0,0.8,0.2,1.2,0.4
		c0.4,0.2,0.7,0.5,0.9,0.9c0.1,0.2,0.1,0.6,0,1.1c-0.1,0.5-0.3,1-0.4,1.5c-0.2,0.6-0.4,1.1-0.6,1.7c-0.2,0.6-0.4,1.1-0.5,1.5
		c-0.3,1-0.6,2.1-0.8,3.3c1.2-1.7,2.4-3.5,3.5-5.3c1.1-1.8,2.4-3.6,3.8-5.2l0.5-0.5C19,3,19.2,2.9,19.5,3c0.4,0,0.9,0.2,1.2,0.4
		c0.3,0.2,0.6,0.5,0.8,0.9c0.2,0.3,0.2,0.6,0.1,1c-0.1,0.3-0.3,0.7-0.5,1c-0.2,0.4-0.4,0.7-0.7,1c-0.2,0.3-0.4,0.6-0.6,0.9
		c-0.7,1.3-1.3,2.7-1.8,4c-0.5,1.5-0.8,3.1-0.6,4.7c0.4-0.3,0.8-0.8,1.1-1.2c0.3-0.4,0.6-0.8,0.9-1.2c1.3-1.4,2.5-2.8,3.6-4.3
		c1.1-1.4,2.3-2.8,3.6-4.3c0-0.1,0.1-0.2,0.2-0.2c0.1-0.1,0.2-0.1,0.4-0.1c0.2,0,0.3,0.1,0.4,0.3c0.1,0.1,0,0.3-0.1,0.5
		C27.3,6.7,27.2,7,27,7.3c-0.2,0.3-0.4,0.6-0.6,0.9c-0.2,0.3-0.4,0.6-0.5,0.8L24,12.7c-0.6,1.2-1.4,2.4-2.1,3.5
		c-0.3,0.4-0.5,0.8-0.8,1.2c-0.3,0.4-0.6,0.8-1,1.2c-0.4,0.3-0.7,0.7-1.2,0.9c-0.4,0.3-0.9,0.4-1.4,0.4c-0.4,0-0.8-0.1-1.2-0.3
		c-0.5-0.3-0.9-0.7-1.2-1.2c-0.3-0.5-0.4-1.1-0.4-1.7c0.1-0.5,0.2-1.1,0.4-1.6c0.2-0.5,0.4-1,0.7-1.5c0.2-0.4,0.4-0.9,0.6-1.4
		c0.2-0.5,0.4-0.9,0.6-1.4c0.2-0.5,0.3-1,0.5-1.6c-1.3,1.5-2.5,3.1-3.5,4.7c-1,1.7-2,3.4-2.8,5.2c-0.1,0.3-0.2,0.6-0.3,0.8
		c-0.1,0.3-0.3,0.4-0.7,0.4c-0.4,0-0.8-0.2-1.2-0.4c-0.3-0.2-0.6-0.5-0.8-0.9C7.8,18.6,7.8,18.2,8.1,18z"/>
	<path class="st1" d="M29.8,6.4C29.8,6.4,29.8,6.5,29.8,6.4C29.7,6.5,29.7,6.4,29.8,6.4c-1.2,2.7-2.3,5.5-3.3,8.3
		c-1,2.8-1.9,5.6-2.8,8.5l5.7-12.1c0.3-0.6,0.6-1.3,0.9-2.1c0.3-0.8,0.7-1.6,1.2-2.4c0.4-0.7,1-1.4,1.6-1.9c0.6-0.5,1.4-0.8,2.2-0.8
		c0.5,0,0.9,0.1,1.4,0.4c0.5,0.3,1,0.7,1.2,1.3c0.3,0.6,0.4,1.3,0.3,1.9c-0.1,0.7-0.4,1.3-0.7,1.9c-0.3,0.6-0.7,1.2-1.1,1.9
		c-0.4,0.6-0.7,1.2-1,1.8l-0.3,0.7l7.8-8.2c0,0,0.1-0.1,0.1-0.1c0.2,0,0.4,0.1,0.5,0.3c0.1,0.2,0,0.5-0.3,1c-0.3,0.5-0.6,1-1,1.6
		C42,8.9,41.6,9.5,41.1,10c-0.3,0.4-0.6,0.9-0.9,1.3c-1,1.4-2,2.8-3,4.3c-1,1.4-2,2.9-2.8,4.4c-0.2,0.2-0.5,0.4-0.8,0.4
		c-0.4,0-0.8-0.2-1.2-0.4c-0.4-0.2-0.7-0.5-0.9-0.9c-0.2-0.4-0.2-0.9-0.1-1.3l0-0.1c0.1-0.5,0.3-0.9,0.6-1.3c0.3-0.5,0.5-1,0.8-1.5
		c0.3-0.5,0.6-1,0.9-1.5c0.3-0.5,0.5-0.9,0.7-1.4c0.2-0.7,0.4-1.4,0.5-2.1c0.1-0.7,0.2-1.5,0.3-2.2c-0.2,0.2-0.5,0.5-0.7,0.8
		c-0.2,0.3-0.4,0.5-0.6,0.8c-1.9,2.2-3.7,4.5-5.1,7c-1.5,2.5-2.8,5.1-3.9,7.8c-1.2,2.7-2.2,5.4-3.2,8.1c-0.9,2.7-1.9,5.4-2.8,8
		c0,0.1-0.1,0.2-0.1,0.3c0,0.1,0,0.2-0.1,0.3l-0.1-0.1c-0.1,0.3-0.3,0.5-0.6,0.5c-0.4,0-0.8-0.1-1.1-0.4c-0.3-0.2-0.6-0.5-0.8-0.8
		c-0.2-0.3-0.2-0.7-0.1-1c0.1-0.4,0.2-0.7,0.3-1.1c0.1-0.3,0.3-0.6,0.4-0.9c0.2-0.2,0.2-0.4,0.3-0.4c1.7-4.7,3.4-9.5,5-14.3
		c1.6-4.8,3-9.7,4.2-14.9c0.1-0.4,0.1-0.8,0.2-1.1c0-0.4,0.1-0.8,0.2-1.3c0.1-0.4,0.2-0.7,0.4-1c0.1-0.3,0.4-0.4,0.7-0.4
		c0.5,0,0.9,0.2,1.3,0.5c0.4,0.3,0.7,0.6,0.9,1c0.2,0.3,0.2,0.6,0.1,1l0-0.1L29.8,6.4z M29.9,6.1L30,6L29.9,6.1z M34.2,19.1l0.1,0.2
		l0,0.1l0-0.2L34.2,19.1z"/>
	<polygon class="st0" points="6.2,-5.3 14,-14.5 8.3,-14.5 2.1,-7 2.1,-14.5 -2.2,-14.5 -2.2,9.4 2.1,9.4 2.1,-0.5 3.4,-2 12.9,9.4 
		18.7,9.4 	"/>
	<path class="st1" d="M-5.6,10.8c-0.3,0.8-0.6,1.8-1,2.8c-0.3,1-0.7,2-1.1,2.9c-0.4,0.8-0.9,1.6-1.5,2.3c-0.6,0.6-1.2,0.9-2,0.9
		c-0.6,0-1.2-0.2-1.7-0.6c-0.5-0.3-1-0.8-1.3-1.4c-0.3-0.6-0.5-1.2-0.4-1.8c0-0.6,0.1-1.2,0.4-1.7c0.2-0.6,0.5-1.1,0.8-1.6
		c0.3-0.5,0.6-1,0.8-1.5c0.4-0.8,0.8-1.8,1.2-2.8c0.4-1,0.9-1.9,1.5-2.8c0.5-0.8,1.3-1.6,2.1-2.1C-7.1,3-6.1,2.7-4.9,2.7
		c0.5,0,1,0.1,1.4,0.2c0.6,0.1,1.1,0.3,1.6,0.6c0.5,0.3,1,0.6,1.5,0.9c0.4,0.3,0.7,0.7,1,1.1c0.1,0.3,0.2,0.6,0,0.9
		C0.5,6.9,0.3,7.3,0,7.6c-0.3,0.3-0.6,0.7-0.9,1c-0.3,0.2-0.5,0.5-0.6,0.8c-0.6,0.9-1,1.9-1.3,3c-0.3,1-0.5,2.1-0.6,3.1l1.1-1.3
		c1.1-1.1,2.1-2.3,3-3.6C1.7,9.3,2.7,8,3.7,6.7C3.8,6.5,3.9,6.3,4.1,6c0.1-0.3,0.3-0.5,0.5-0.5c0.2,0,0.4,0.1,0.5,0.3
		c0.1,0.2,0.1,0.7-0.1,1.3c-0.3,0.7-0.5,1.3-0.9,2c-0.4,0.7-0.8,1.5-1.2,2.2c-0.4,0.7-0.8,1.4-1.1,1.9c-0.4,0.7-0.8,1.3-1.1,2
		C0.4,16,0,16.7-0.5,17.4C-0.9,18-1.4,18.5-2,19c-0.5,0.4-1.2,0.7-1.8,0.7c-0.5,0-1-0.2-1.4-0.5C-5.7,18.9-6,18.5-6.3,18
		c-0.4-0.8-0.5-1.5-0.1-2.2c0.3-0.7,0.7-1.3,1-1.9c0.7-1.2,1.3-2.5,1.8-3.8c0.5-1.4,1-2.8,1.3-4.3c-0.4-0.2-0.8-0.2-1.3-0.2
		c-0.6,0-1.1,0.1-1.7,0.3c-0.6,0.2-1.1,0.5-1.6,0.8c-0.5,0.3-1,0.7-1.4,1.1c-0.4,0.3-0.8,0.7-1.2,1.1c-0.9,1-1.6,2.1-2,3.4
		c-0.4,1.3-0.6,2.7-0.4,4.3c1.2-0.8,2.3-1.8,3.2-3c0.9-1,1.7-2.2,2.3-3.4c0.1,0,0.1-0.1,0.1-0.2c0-0.1,0.1-0.1,0.1-0.1
		c0.1,0,0.3,0,0.4,0.1c0.1,0.1,0.2,0.1,0.2,0.2C-5.5,10.5-5.5,10.6-5.6,10.8c0,0-0.1,0.1-0.1,0.2L-5.6,10.8z M-11.6,17.7L-11.6,17.7
		l-0.1-0.2L-11.6,17.7z M-5.7,11L-5.7,11c-0.1,0.1-0.1,0.1-0.1,0.1C-5.8,11-5.8,11-5.7,11L-5.7,11z"/>
</g>
</svg>
