<svg  id="Layer_1" data-name="Layer 1" xmlns="http://www.w3.org/2000/svg" viewBox="0 0 465.81 393.5"><defs><style>.cls-1{fill:#e6e7e8;}.cls-2{fill:#ebc76d;}</style></defs><title>Untitled-1</title><polygon class="cls-1" points="44.25 142.22 44.25 95.03 104.24 95.03 104.24 63.81 44.25 63.81 44.25 30.77 119.07 30.77 119.07 2.47 13.71 2.47 13.71 170.52 124.24 170.52 124.24 142.22 44.25 142.22"/><path class="cls-1" d="M772.66,123.15c-47.45,0-86,38.5-86,85.82a86.14,86.14,0,0,0,86,86c47.32,0,85.82-38.6,85.82-86A85.92,85.92,0,0,0,772.66,123.15ZM827.26,209a54.72,54.72,0,1,1-54.61-54.61A54.78,54.78,0,0,1,827.26,209Z" transform="translate(-405.75 -123.15)"/><path class="cls-2" d="M446,263.7q-6.33,8.91-5.12,21.22a155,155,0,0,0,4.77,25.46q12.46-9.33,25-18.46a79.5,79.5,0,0,0,20.09-20.58,8.18,8.18,0,0,0,2.24-3.4,2.9,2.9,0,0,1,2.91-2.12,3.53,3.53,0,0,1,3.24,2.12q1.8,3.4-2.81,9.13a106.6,106.6,0,0,1-12.57,12.73q-8,7-17.5,15.07t-17.79,15.7q3.07,10.62,5.57,20.16a58.09,58.09,0,0,1,2.19,17q-.32,7.43-4.32,11.88t-14.62,4.46q-8.06,0-18.16-4.24t-12.79-9.34q-1.35-2.55.34-6.58a62.57,62.57,0,0,1,4.42-8.49,78.43,78.43,0,0,1,6.22-8.7q3.49-4.24,6-6.79a178.86,178.86,0,0,1,14.89-13.58q-2.67-11.46-6.84-23.77t-6.69-22.28q-2.52-10-1.75-16.55t8-6.58a13.73,13.73,0,0,1,8.69,3.18,21.56,21.56,0,0,1,5.81,6.58Q447.39,260.73,446,263.7ZM438.19,346a23.34,23.34,0,0,0,2-7.85,48,48,0,0,0-.17-9.55l-3.27,4.24a111.13,111.13,0,0,0-7.44,10.4,106.39,106.39,0,0,0-6.15,11.25,32,32,0,0,0,8.75-1.91Q435.79,351.14,438.19,346Z" transform="translate(-405.75 -123.15)"/><path class="cls-2" d="M620.28,354.1a11.69,11.69,0,0,0,2.25-3,73.33,73.33,0,0,1,2.79-10q1.86-5.3,3-9.55,2.28-9.33,4-18.89t2.94-19.31A188.81,188.81,0,0,0,611,326.52a170,170,0,0,0-15.36,34q-1.16,3.4-2.76,7.22t-6.25,3.82a17.21,17.21,0,0,1-9.65-3.4,22.54,22.54,0,0,1-7.45-8.06,12.07,12.07,0,0,1-.77-8.28,64.92,64.92,0,0,1,3-10,73.83,73.83,0,0,1,4.5-9.55,43,43,0,0,0,3.5-7.43,297.05,297.05,0,0,0,12.83-55.17,38.17,38.17,0,0,0,.32-7.43q-.21-3.6,5.31-3.61a15.07,15.07,0,0,1,7.93,2.55,16.67,16.67,0,0,1,6.13,6.37q2.69,5.09,0,8.06l.6-1.27a118.56,118.56,0,0,0-9.81,24q-3.76,13-6.34,26.53a192.78,192.78,0,0,0,24.92-33.53,212.64,212.64,0,0,0,15.23-31l.37-1.7.22.42.38-1.7a11.88,11.88,0,0,1,1.72-2.76c.62-.7,1.91-1.06,3.9-1.06a15.83,15.83,0,0,1,8.25,2.76,17.54,17.54,0,0,1,6.45,6.58q1.35,2.55.32,7.43a102.31,102.31,0,0,1-3,10.82q-1.95,5.95-4.42,12.1T647.26,304q-3.07,11-5.9,23.34,12.84-18.24,24.71-37.14a347.65,347.65,0,0,1,26.63-36.71l3.3-3.4a6.15,6.15,0,0,1,4.62-1.7,13.87,13.87,0,0,1,8.57,3,19.92,19.92,0,0,1,5.7,6.37,8.23,8.23,0,0,1,.62,6.79,38.92,38.92,0,0,1-3.3,7,50.74,50.74,0,0,1-5,7,29.82,29.82,0,0,0-4.27,6.37,232.36,232.36,0,0,0-12.76,28.44,76.63,76.63,0,0,0-4.35,33.1,39.69,39.69,0,0,0,7.6-8.49,102.16,102.16,0,0,1,6.33-8.49q13.79-14.85,25.34-29.92t25.34-29.92a5.16,5.16,0,0,1,1.44-1.7,4.19,4.19,0,0,1,2.73-.85c1.13,0,2.07.71,2.82,2.12q.67,1.27-.53,3.82a65,65,0,0,1-3.12,5.73q-1.93,3.18-4.16,6.58t-3.86,5.94l-13.69,25.47a268.79,268.79,0,0,1-15,24.62q-2.66,3.82-5.7,8.49a49.69,49.69,0,0,1-7,8.49,53.11,53.11,0,0,1-8.19,6.58,17.68,17.68,0,0,1-9.79,2.76,21.19,21.19,0,0,1-8.45-2.33,17.83,17.83,0,0,1-8.2-8.28A21.2,21.2,0,0,1,667,345a42,42,0,0,1,2.75-11.25,89.89,89.89,0,0,1,5-10.61,47.58,47.58,0,0,0,4.17-9.76,99,99,0,0,0,4-9.76q1.76-5.09,3.29-11a261.55,261.55,0,0,0-24.82,33.32,344.48,344.48,0,0,0-19.85,36.29c-.65,2-1.34,3.89-2.06,5.73s-2.36,2.76-4.91,2.76a14.21,14.21,0,0,1-8.36-3,19.11,19.11,0,0,1-5.92-6.37Q617.81,356.65,620.28,354.1Z" transform="translate(-405.75 -123.15)"/><path class="cls-2" d="M773.25,272.62c-.14.28-.27.42-.41.42s-.15-.14,0-.42Q760.5,301.48,750.22,331T730.4,390.6l40.41-84.88q3-6.37,6.67-15.07a128.86,128.86,0,0,1,8.43-16.55,53,53,0,0,1,11.39-13.37,23.58,23.58,0,0,1,15.54-5.52,22.94,22.94,0,0,1,9.62,2.55,19.45,19.45,0,0,1,8.75,8.91,20.32,20.32,0,0,1,2.3,13.58,46.67,46.67,0,0,1-4.81,13.37q-3.52,6.59-7.89,13.16a69.37,69.37,0,0,0-6.75,12.52L812.29,324l54.77-57.72c.13-.28.48-.42,1-.42a3.53,3.53,0,0,1,3.24,2.12q.9,1.7-2.14,6.79T861.8,286q-4.38,6.16-8.88,12.1a112.57,112.57,0,0,0-6.52,9.34q-10.39,14.86-21.1,29.92t-20,31.19a7.1,7.1,0,0,1-5.87,2.55,15.6,15.6,0,0,1-8.36-3,18.08,18.08,0,0,1-6.34-6.37,10.37,10.37,0,0,1-.47-8.91l.2-.42a42.58,42.58,0,0,1,4-9.34q2.82-5.09,5.85-10.61t6.16-10.82a65.43,65.43,0,0,0,4.91-10,69.78,69.78,0,0,0,3.49-15.07q.94-7.85,2-15.49a59.82,59.82,0,0,0-4.72,5.52q-2.25,3-4.3,5.52a300.65,300.65,0,0,0-36,49.44,516.28,516.28,0,0,0-27.7,54.75q-12.23,28.22-22.22,57.08t-19.38,56a4.65,4.65,0,0,0-.36,2.12,4.62,4.62,0,0,1-.36,2.12l-.65-.42q-.75,3.39-4.57,3.4a13.07,13.07,0,0,1-7.5-2.55,16.93,16.93,0,0,1-5.48-5.94,11,11,0,0,1-.95-7,33.34,33.34,0,0,1,2.11-7.64,39.82,39.82,0,0,1,3.11-6.15c1.08-1.7,1.69-2.69,1.82-3q18.07-50.09,35.07-100.59T748.18,279a74.33,74.33,0,0,0,1.25-8.06,81.7,81.7,0,0,1,1.44-8.91,23.42,23.42,0,0,1,2.76-7.21,5.79,5.79,0,0,1,5.22-3,14.58,14.58,0,0,1,8.9,3.18,21.46,21.46,0,0,1,6.25,7,9.67,9.67,0,0,1,1,6.79l-.22-.42Zm1-2.12.4-.85Zm30.24,91.67.67,1.27.22.42-.05-1.7Z" transform="translate(-405.75 -123.15)"/><polygon class="cls-1" points="201.55 66.96 256.4 2.47 215.86 2.47 172.55 55.16 172.55 2.47 142.23 2.47 142.23 170.52 172.55 170.52 172.55 100.99 181.72 90.18 248.46 170.52 289.16 170.52 201.55 66.96"/><path class="cls-2" d="M524,303.6q-3.35,8.91-6.85,19.95a166.08,166.08,0,0,1-8,20.58,67,67,0,0,1-10.35,16.13q-5.85,6.59-13.92,6.58a22.07,22.07,0,0,1-12.11-4,26.11,26.11,0,0,1-9.08-9.55,25,25,0,0,1-3.13-12.73,36.32,36.32,0,0,1,2.51-12.1,83.27,83.27,0,0,1,5.51-11.25q3.24-5.51,5.63-10.61,4.2-8.91,8.56-19.52A113.48,113.48,0,0,1,493,267.52a53.41,53.41,0,0,1,14.64-14.85q8.73-5.94,21.47-5.94a42.44,42.44,0,0,1,10.12,1.49,61.16,61.16,0,0,1,11.58,4.24A55.66,55.66,0,0,1,561.29,259a26.32,26.32,0,0,1,7,8.06,7.42,7.42,0,0,1,.08,6.58,28.6,28.6,0,0,1-4.46,7.22q-3,3.61-6.17,6.79a21.6,21.6,0,0,0-4.4,5.73,81.92,81.92,0,0,0-8.95,20.8A207.74,207.74,0,0,0,540,336.28l8-8.91a229.82,229.82,0,0,0,21.23-25.25q9.69-13.37,20.11-27.37a31.7,31.7,0,0,0,2.72-4.88c1-2.12,2.2-3.18,3.62-3.18a3.84,3.84,0,0,1,3.67,2.12q1.35,2.55-1,8.91a144.37,144.37,0,0,1-6.17,14q-3.82,7.64-8.36,15.49t-7.57,13.37A158.3,158.3,0,0,0,568.58,335a104.18,104.18,0,0,1-8.48,14.85,56.69,56.69,0,0,1-10.28,11.46A19.4,19.4,0,0,1,537,366a17.53,17.53,0,0,1-10.18-3.61,24,24,0,0,1-7.56-8.28q-4.49-8.48-.88-15.7t6.83-13.16a192.86,192.86,0,0,0,12.69-27,209.24,209.24,0,0,0,9-29.92,24.27,24.27,0,0,0-9-1.7,34.69,34.69,0,0,0-11.82,2.12,46.29,46.29,0,0,0-11,5.73q-5.09,3.61-10,7.64a83.86,83.86,0,0,0-8.37,7.85,66.22,66.22,0,0,0-14.17,23.77q-4.7,13.59-2.73,30.13a110.26,110.26,0,0,0,22.74-20.8,114.36,114.36,0,0,0,15.85-24.19,1.52,1.52,0,0,0,.71-1.06q.08-.64.94-.64a4.71,4.71,0,0,1,2.57.85,5.06,5.06,0,0,1,1.75,1.7q1.13,2.13.2,3.18a8.62,8.62,0,0,0-1.32,1.91ZM482.07,352l.22.42-.9-1.7Zm41.29-47.11-.2.42c-.42.28-.59.36-.52.21A2.31,2.31,0,0,1,523.36,304.87Z" transform="translate(-405.75 -123.15)"/></svg>